# xmcd
#
# Track frame offsets:
#	150
#	20758
#	38646
#	64755
#	82114
#	104320
#	125666
#	138284
#	158112
#	176586
#	195211
#
# Disc length: 2833 seconds
#
# Revision: 0
# Processed by: cddbd v1.5.1PL0 Copyright (c) Steve Scherf et al.
# Submitted via: dBpowerAMP V4.0
#
DISCID=8e0b0f0b
DTITLE=Lee Ann Womack - Lee Ann Womack
DYEAR=1900
DGENRE=Country
TTITLE0=Something Worth Leaving Behind
TTITLE1=When You Gonna Run To Me
TTITLE2=Talk To Me
TTITLE3=Forever Everyday
TTITLE4=I Need You
TTITLE5=You Should've Lied
TTITLE6=He'll Be Back
TTITLE7=Surrender
TTITLE8=Blame It On Me
TTITLE9=Closing This Memory Down
TTITLE10=Something Worth Leaving Behind (Edit)
EXTD=
EXTT0=
EXTT1=
EXTT2=
EXTT3=
EXTT4=
EXTT5=
EXTT6=
EXTT7=
EXTT8=
EXTT9=
EXTT10=
PLAYORDER=
